<svg xmlns="http://www.w3.org/2000/svg" xmlns:xlink="http://www.w3.org/1999/xlink" width="1080" zoomAndPan="magnify" viewBox="0 0 810 809.999993" height="1080" preserveAspectRatio="xMidYMid meet" version="1.0"><defs><g/></defs><g fill="#ffffff" fill-opacity="1"><g transform="translate(40.779369, 378.049872)"><g><path d="M 98.046875 2.8125 C 81.316406 2.8125 66.1875 -0.820312 52.65625 -8.09375 C 39.132812 -15.363281 28.503906 -25.445312 20.765625 -38.34375 C 13.023438 -51.25 9.15625 -65.835938 9.15625 -82.109375 C 9.15625 -98.367188 13.023438 -112.945312 20.765625 -125.84375 C 28.503906 -138.75 39.132812 -148.835938 52.65625 -156.109375 C 66.1875 -163.378906 81.394531 -167.015625 98.28125 -167.015625 C 112.519531 -167.015625 125.382812 -164.507812 136.875 -159.5 C 148.375 -154.5 158.03125 -147.3125 165.84375 -137.9375 L 141.453125 -115.40625 C 130.347656 -128.226562 116.585938 -134.640625 100.171875 -134.640625 C 90.003906 -134.640625 80.929688 -132.410156 72.953125 -127.953125 C 64.972656 -123.503906 58.753906 -117.289062 54.296875 -109.3125 C 49.847656 -101.332031 47.625 -92.265625 47.625 -82.109375 C 47.625 -71.941406 49.847656 -62.867188 54.296875 -54.890625 C 58.753906 -46.910156 64.972656 -40.691406 72.953125 -36.234375 C 80.929688 -31.785156 90.003906 -29.5625 100.171875 -29.5625 C 116.585938 -29.5625 130.347656 -36.050781 141.453125 -49.03125 L 165.84375 -26.5 C 158.03125 -16.96875 148.335938 -9.695312 136.765625 -4.6875 C 125.191406 0.3125 112.285156 2.8125 98.046875 2.8125 Z M 98.046875 2.8125 "/></g></g></g><g fill="#ffffff" fill-opacity="1"><g transform="translate(212.71125, 378.049872)"><g><path d="M 124.09375 0 L 92.421875 -45.75 L 57.46875 -45.75 L 57.46875 0 L 19.46875 0 L 19.46875 -164.203125 L 90.546875 -164.203125 C 105.085938 -164.203125 117.710938 -161.773438 128.421875 -156.921875 C 139.140625 -152.078125 147.390625 -145.195312 153.171875 -136.28125 C 158.960938 -127.375 161.859375 -116.820312 161.859375 -104.625 C 161.859375 -92.425781 158.925781 -81.90625 153.0625 -73.0625 C 147.195312 -64.226562 138.867188 -57.46875 128.078125 -52.78125 L 164.90625 0 Z M 123.390625 -104.625 C 123.390625 -113.851562 120.414062 -120.925781 114.46875 -125.84375 C 108.53125 -130.769531 99.851562 -133.234375 88.4375 -133.234375 L 57.46875 -133.234375 L 57.46875 -76 L 88.4375 -76 C 99.851562 -76 108.53125 -78.5 114.46875 -83.5 C 120.414062 -88.507812 123.390625 -95.550781 123.390625 -104.625 Z M 123.390625 -104.625 "/></g></g></g><g fill="#ffffff" fill-opacity="1"><g transform="translate(385.112246, 378.049872)"><g><path d="M 146.609375 -30.5 L 146.609375 0 L 19.46875 0 L 19.46875 -164.203125 L 143.5625 -164.203125 L 143.5625 -133.703125 L 57.234375 -133.703125 L 57.234375 -98.046875 L 133.46875 -98.046875 L 133.46875 -68.5 L 57.234375 -68.5 L 57.234375 -30.5 Z M 146.609375 -30.5 "/></g></g></g><g fill="#ffffff" fill-opacity="1"><g transform="translate(40.779369, 602.722433)"><g><path d="M 118.828125 -32.765625 L 47.84375 -32.765625 L 34.296875 0 L -1.96875 0 L 66.1875 -152.90625 L 101.140625 -152.90625 L 169.5 0 L 132.375 0 Z M 107.6875 -59.640625 L 83.4375 -118.171875 L 59.203125 -59.640625 Z M 107.6875 -59.640625 "/></g></g></g><g fill="#ffffff" fill-opacity="1"><g transform="translate(208.097956, 602.722433)"><g/></g></g><g fill="#ffffff" fill-opacity="1"><g transform="translate(269.914094, 602.722433)"><g><path d="M 49.796875 -124.078125 L 0.875 -124.078125 L 0.875 -152.90625 L 134.125 -152.90625 L 134.125 -124.078125 L 85.1875 -124.078125 L 85.1875 0 L 49.796875 0 Z M 49.796875 -124.078125 "/></g></g></g><g fill="#ffffff" fill-opacity="1"><g transform="translate(404.904811, 602.722433)"><g/></g></g><g fill="#ffffff" fill-opacity="1"><g transform="translate(466.720949, 602.722433)"><g><path d="M 18.125 -152.90625 L 53.515625 -152.90625 L 53.515625 0 L 18.125 0 Z M 18.125 -152.90625 "/></g></g></g><g fill="#ffffff" fill-opacity="1"><g transform="translate(717.475331, 497.772835)"><g><path d="M -146.71875 -158.46875 L 0 -94.953125 L 0 -61.421875 L -146.71875 1.890625 L -146.71875 -34.796875 L -41.921875 -79.4375 L -146.71875 -124.71875 Z M -146.71875 -158.46875 "/></g></g></g><g fill="#ffffff" fill-opacity="1"><g transform="translate(717.475331, 341.413885)"><g><path d="M -27.25 -131 L 0 -131 L 0 -17.390625 L -146.71875 -17.390625 L -146.71875 -128.28125 L -119.484375 -128.28125 L -119.484375 -51.140625 L -87.609375 -51.140625 L -87.609375 -119.265625 L -61.203125 -119.265625 L -61.203125 -51.140625 L -27.25 -51.140625 Z M -27.25 -131 "/></g></g></g></svg>