<svg xmlns="http://www.w3.org/2000/svg" xmlns:xlink="http://www.w3.org/1999/xlink" width="1080" zoomAndPan="magnify" viewBox="0 0 810 809.999993" height="1080" preserveAspectRatio="xMidYMid meet" version="1.0"><defs><clipPath id="22b70bf0b2"><path d="M 69.832031 134.28125 L 356.734375 134.28125 L 356.734375 611.105469 L 69.832031 611.105469 Z M 69.832031 134.28125 " clip-rule="nonzero"/></clipPath><clipPath id="8769d0279c"><path d="M 453.265625 134.28125 L 740.167969 134.28125 L 740.167969 611.105469 L 453.265625 611.105469 Z M 453.265625 134.28125 " clip-rule="nonzero"/></clipPath></defs><g clip-path="url(#22b70bf0b2)"><path fill="#ffffff" d="M 214.273438 327.035156 C 197.457031 327.035156 181.390625 330.121094 166.40625 335.507812 C 167.722656 320.3125 170.480469 305 174.796875 289.835938 C 183.558594 258.640625 199.449219 228.648438 220.804688 201.851562 C 242.21875 175.09375 269.554688 151.761719 301.375 134.277344 C 265.988281 142.128906 231.226562 157.304688 199.917969 179.214844 C 168.695312 201.144531 140.527344 229.5625 119.097656 263.5625 C 97.566406 297.445312 82.132812 336.484375 74.796875 378.042969 C 69.046875 411.078125 68.175781 445.492188 72.785156 479.894531 C 73.464844 488.902344 75.011719 497.644531 77.304688 506.109375 C 77.335938 506.246094 77.355469 506.386719 77.382812 506.523438 L 77.410156 506.511719 C 93.902344 566.691406 148.925781 611.105469 214.273438 611.105469 C 292.59375 611.105469 356.3125 547.386719 356.3125 469.066406 C 356.3125 390.753906 292.59375 327.035156 214.273438 327.035156 " fill-opacity="1" fill-rule="nonzero"/></g><g clip-path="url(#8769d0279c)"><path fill="#ffffff" d="M 598.128906 327.035156 C 581.320312 327.035156 565.246094 330.121094 550.265625 335.507812 C 551.582031 320.3125 554.34375 305 558.660156 289.835938 C 567.414062 258.640625 583.304688 228.648438 604.660156 201.851562 C 626.074219 175.09375 653.410156 151.761719 685.230469 134.277344 C 649.84375 142.128906 615.082031 157.304688 583.773438 179.214844 C 552.558594 201.144531 524.382812 229.5625 502.953125 263.5625 C 481.421875 297.445312 465.988281 336.484375 458.652344 378.042969 C 452.902344 411.085938 452.039062 445.5 456.648438 479.910156 C 457.328125 488.902344 458.871094 497.636719 461.15625 506.082031 C 461.1875 506.230469 461.207031 506.375 461.238281 506.523438 L 461.269531 506.511719 C 477.761719 566.691406 532.789062 611.105469 598.128906 611.105469 C 676.453125 611.105469 740.167969 547.386719 740.167969 469.066406 C 740.167969 390.753906 676.453125 327.035156 598.128906 327.035156 " fill-opacity="1" fill-rule="nonzero"/></g></svg>