<svg xmlns="http://www.w3.org/2000/svg" xmlns:xlink="http://www.w3.org/1999/xlink" width="1080" zoomAndPan="magnify" viewBox="0 0 810 809.999993" height="1080" preserveAspectRatio="xMidYMid meet" version="1.0"><defs><clipPath id="45b0a9cf8f"><path d="M 125 81 L 686.429688 81 L 686.429688 729 L 125 729 Z M 125 81 " clip-rule="nonzero"/></clipPath><clipPath id="192638b004"><path d="M 474.277344 194.6875 C 447.09375 128.101562 381.601562 81.226562 305.109375 81.730469 C 207.628906 82.363281 127.46875 160.953125 125.066406 258.371094 C 123.929688 306.382812 141.503906 350.351562 170.964844 383.457031 C 194.480469 409.863281 206.363281 444.484375 205.101562 479.863281 C 204.972656 484.539062 204.972656 489.339844 204.972656 494.015625 C 208.132812 622.132812 317.625 728.773438 445.828125 728.648438 C 578.710938 728.523438 686.429688 620.871094 686.429688 487.949219 C 686.429688 390.53125 628.523438 306.761719 545.332031 268.855469 C 513.089844 254.074219 487.675781 227.667969 474.277344 194.6875 Z M 474.277344 194.6875 " clip-rule="nonzero"/></clipPath><linearGradient x1="50.221828" gradientTransform="matrix(1.264329, 0, 0, -1.263512, 82.207141, 731.175731)" y1="526.662668" x2="442.051039" gradientUnits="userSpaceOnUse" y2="-23.626038" id="c2bd37b4cf"><stop stop-opacity="1" stop-color="rgb(100%, 85.899353%, 92.89856%)" offset="0"/><stop stop-opacity="1" stop-color="rgb(100%, 85.899353%, 92.89856%)" offset="0.0625"/><stop stop-opacity="1" stop-color="rgb(100%, 85.899353%, 92.89856%)" offset="0.09375"/><stop stop-opacity="1" stop-color="rgb(99.906921%, 85.905457%, 92.935181%)" offset="0.109375"/><stop stop-opacity="1" stop-color="rgb(99.64447%, 85.922241%, 93.041992%)" offset="0.125"/><stop stop-opacity="1" stop-color="rgb(99.304199%, 85.946655%, 93.179321%)" offset="0.140625"/><stop stop-opacity="1" stop-color="rgb(98.963928%, 85.969543%, 93.31665%)" offset="0.15625"/><stop stop-opacity="1" stop-color="rgb(98.625183%, 85.992432%, 93.453979%)" offset="0.171875"/><stop stop-opacity="1" stop-color="rgb(98.284912%, 86.01532%, 93.591309%)" offset="0.1875"/><stop stop-opacity="1" stop-color="rgb(97.944641%, 86.038208%, 93.727112%)" offset="0.203125"/><stop stop-opacity="1" stop-color="rgb(97.60437%, 86.061096%, 93.864441%)" offset="0.21875"/><stop stop-opacity="1" stop-color="rgb(97.264099%, 86.08551%, 94.00177%)" offset="0.234375"/><stop stop-opacity="1" stop-color="rgb(96.925354%, 86.108398%, 94.139099%)" offset="0.25"/><stop stop-opacity="1" stop-color="rgb(96.585083%, 86.131287%, 94.276428%)" offset="0.265625"/><stop stop-opacity="1" stop-color="rgb(96.244812%, 86.154175%, 94.413757%)" offset="0.28125"/><stop stop-opacity="1" stop-color="rgb(95.904541%, 86.177063%, 94.551086%)" offset="0.296875"/><stop stop-opacity="1" stop-color="rgb(95.565796%, 86.201477%, 94.68689%)" offset="0.3125"/><stop stop-opacity="1" stop-color="rgb(95.225525%, 86.224365%, 94.824219%)" offset="0.328125"/><stop stop-opacity="1" stop-color="rgb(94.885254%, 86.247253%, 94.961548%)" offset="0.34375"/><stop stop-opacity="1" stop-color="rgb(94.544983%, 86.270142%, 95.098877%)" offset="0.359375"/><stop stop-opacity="1" stop-color="rgb(94.206238%, 86.29303%, 95.236206%)" offset="0.375"/><stop stop-opacity="1" stop-color="rgb(93.865967%, 86.317444%, 95.373535%)" offset="0.382"/><stop stop-opacity="1" stop-color="rgb(93.696594%, 86.329651%, 95.4422%)" offset="0.390625"/><stop stop-opacity="1" stop-color="rgb(93.525696%, 86.340332%, 95.510864%)" offset="0.40625"/><stop stop-opacity="1" stop-color="rgb(93.185425%, 86.36322%, 95.648193%)" offset="0.421875"/><stop stop-opacity="1" stop-color="rgb(92.84668%, 86.386108%, 95.783997%)" offset="0.4375"/><stop stop-opacity="1" stop-color="rgb(92.506409%, 86.408997%, 95.921326%)" offset="0.453125"/><stop stop-opacity="1" stop-color="rgb(92.166138%, 86.433411%, 96.058655%)" offset="0.46875"/><stop stop-opacity="1" stop-color="rgb(91.825867%, 86.456299%, 96.195984%)" offset="0.484375"/><stop stop-opacity="1" stop-color="rgb(91.485596%, 86.479187%, 96.333313%)" offset="0.5"/><stop stop-opacity="1" stop-color="rgb(91.146851%, 86.502075%, 96.470642%)" offset="0.515625"/><stop stop-opacity="1" stop-color="rgb(90.80658%, 86.524963%, 96.607971%)" offset="0.53125"/><stop stop-opacity="1" stop-color="rgb(90.466309%, 86.547852%, 96.743774%)" offset="0.546875"/><stop stop-opacity="1" stop-color="rgb(90.126038%, 86.572266%, 96.881104%)" offset="0.5625"/><stop stop-opacity="1" stop-color="rgb(89.787292%, 86.595154%, 97.018433%)" offset="0.578125"/><stop stop-opacity="1" stop-color="rgb(89.447021%, 86.618042%, 97.155762%)" offset="0.59375"/><stop stop-opacity="1" stop-color="rgb(89.10675%, 86.64093%, 97.293091%)" offset="0.609375"/><stop stop-opacity="1" stop-color="rgb(88.766479%, 86.663818%, 97.43042%)" offset="0.618"/><stop stop-opacity="1" stop-color="rgb(88.597107%, 86.676025%, 97.499084%)" offset="0.625"/><stop stop-opacity="1" stop-color="rgb(88.427734%, 86.688232%, 97.567749%)" offset="0.640625"/><stop stop-opacity="1" stop-color="rgb(88.087463%, 86.711121%, 97.705078%)" offset="0.65625"/><stop stop-opacity="1" stop-color="rgb(87.747192%, 86.734009%, 97.840881%)" offset="0.671875"/><stop stop-opacity="1" stop-color="rgb(87.406921%, 86.756897%, 97.97821%)" offset="0.6875"/><stop stop-opacity="1" stop-color="rgb(87.06665%, 86.779785%, 98.11554%)" offset="0.703125"/><stop stop-opacity="1" stop-color="rgb(86.727905%, 86.804199%, 98.252869%)" offset="0.71875"/><stop stop-opacity="1" stop-color="rgb(86.387634%, 86.827087%, 98.390198%)" offset="0.734375"/><stop stop-opacity="1" stop-color="rgb(86.047363%, 86.849976%, 98.527527%)" offset="0.75"/><stop stop-opacity="1" stop-color="rgb(85.707092%, 86.872864%, 98.664856%)" offset="0.765625"/><stop stop-opacity="1" stop-color="rgb(85.368347%, 86.895752%, 98.800659%)" offset="0.78125"/><stop stop-opacity="1" stop-color="rgb(85.028076%, 86.91864%, 98.937988%)" offset="0.796875"/><stop stop-opacity="1" stop-color="rgb(84.687805%, 86.943054%, 99.075317%)" offset="0.8125"/><stop stop-opacity="1" stop-color="rgb(84.347534%, 86.965942%, 99.212646%)" offset="0.828125"/><stop stop-opacity="1" stop-color="rgb(84.008789%, 86.988831%, 99.349976%)" offset="0.84375"/><stop stop-opacity="1" stop-color="rgb(83.668518%, 87.011719%, 99.487305%)" offset="0.859375"/><stop stop-opacity="1" stop-color="rgb(83.328247%, 87.034607%, 99.624634%)" offset="0.875"/><stop stop-opacity="1" stop-color="rgb(82.987976%, 87.059021%, 99.761963%)" offset="0.890625"/><stop stop-opacity="1" stop-color="rgb(82.647705%, 87.081909%, 99.897766%)" offset="0.90625"/><stop stop-opacity="1" stop-color="rgb(82.43866%, 87.095642%, 99.983215%)" offset="0.9375"/><stop stop-opacity="1" stop-color="rgb(82.398987%, 87.098694%, 100%)" offset="1"/></linearGradient></defs><g clip-path="url(#45b0a9cf8f)"><g clip-path="url(#192638b004)"><path fill="url(#c2bd37b4cf)" d="M 123.929688 728.773438 L 123.929688 81.226562 L 686.429688 81.226562 L 686.429688 728.773438 Z M 123.929688 728.773438 " fill-rule="nonzero"/></g></g><path fill="#2626bc" d="M 657.476562 178.640625 L 583.007812 178.640625 L 583.007812 159.6875 C 583.007812 149.203125 574.535156 140.738281 564.042969 140.738281 L 247.707031 140.738281 C 237.214844 140.738281 228.742188 149.203125 228.742188 159.6875 L 228.742188 178.640625 L 154.273438 178.640625 C 143.78125 178.640625 135.308594 187.105469 135.308594 197.59375 L 135.308594 594.96875 C 135.308594 605.457031 143.78125 613.921875 154.273438 613.921875 L 228.742188 613.921875 L 228.742188 632.875 C 228.742188 643.363281 237.214844 651.828125 247.707031 651.828125 L 564.042969 651.828125 C 574.535156 651.828125 583.007812 643.363281 583.007812 632.875 L 583.007812 613.921875 L 657.476562 613.921875 C 667.972656 613.921875 676.441406 605.457031 676.441406 594.96875 L 676.441406 197.59375 C 676.441406 187.105469 667.972656 178.640625 657.476562 178.640625 Z M 657.476562 178.640625 " fill-opacity="0.1" fill-rule="nonzero"/><path fill="#ffffff" d="M 657.476562 205.175781 L 537.492188 205.175781 L 537.492188 640.457031 L 657.476562 640.457031 C 667.972656 640.457031 676.441406 631.988281 676.441406 621.503906 L 676.441406 224.128906 C 676.441406 213.640625 667.972656 205.175781 657.476562 205.175781 Z M 657.476562 205.175781 " fill-opacity="1" fill-rule="nonzero"/><path fill="#ffa8cf" d="M 628.523438 493.636719 L 537.492188 493.636719 L 537.492188 640.457031 L 628.523438 640.457031 C 630.671875 640.457031 632.316406 638.8125 632.316406 636.664062 L 632.316406 497.425781 C 632.316406 495.40625 630.671875 493.636719 628.523438 493.636719 Z M 628.523438 493.636719 " fill-opacity="1" fill-rule="nonzero"/><path fill="#97ffd2" d="M 628.523438 313.710938 L 537.492188 313.710938 L 537.492188 460.53125 L 628.523438 460.53125 C 630.671875 460.53125 632.316406 458.890625 632.316406 456.742188 L 632.316406 317.5 C 632.316406 315.355469 630.671875 313.710938 628.523438 313.710938 Z M 628.523438 313.710938 " fill-opacity="1" fill-rule="nonzero"/><path fill="#02ffb3" d="M 657.476562 205.175781 L 537.492188 205.175781 L 537.492188 266.078125 L 676.441406 266.078125 L 676.441406 224.128906 C 676.441406 213.640625 667.972656 205.175781 657.476562 205.175781 Z M 657.476562 205.175781 " fill-opacity="1" fill-rule="nonzero"/><path fill="#ffffff" d="M 270.464844 205.175781 L 154.273438 205.175781 C 143.78125 205.175781 135.308594 213.640625 135.308594 224.128906 L 135.308594 621.503906 C 135.308594 631.988281 143.78125 640.457031 154.273438 640.457031 L 270.464844 640.457031 Z M 270.464844 205.175781 " fill-opacity="1" fill-rule="nonzero"/><path fill="#ffa8cf" d="M 270.464844 586.882812 L 270.464844 419.972656 L 173.113281 419.972656 C 170.964844 419.972656 169.320312 421.613281 169.320312 423.761719 L 169.320312 583.09375 C 169.320312 585.238281 170.964844 586.882812 173.113281 586.882812 Z M 270.464844 586.882812 " fill-opacity="1" fill-rule="nonzero"/><path fill="#9fb0fe" d="M 270.464844 387.246094 L 270.464844 334.179688 L 173.113281 334.179688 C 170.964844 334.179688 169.320312 335.824219 169.320312 337.96875 L 169.320312 383.457031 C 169.320312 385.605469 170.964844 387.246094 173.113281 387.246094 Z M 270.464844 387.246094 " fill-opacity="1" fill-rule="nonzero"/><path fill="#ff7eb8" d="M 270.464844 205.175781 L 154.273438 205.175781 C 143.78125 205.175781 135.308594 213.640625 135.308594 224.128906 L 135.308594 266.078125 L 270.464844 266.078125 Z M 270.464844 205.175781 " fill-opacity="1" fill-rule="nonzero"/><path fill="#ffffff" d="M 583.007812 186.222656 L 583.007812 659.410156 C 583.007812 669.894531 574.535156 678.359375 564.042969 678.359375 L 247.707031 678.359375 C 237.214844 678.359375 228.742188 669.894531 228.742188 659.410156 L 228.742188 186.222656 C 228.742188 175.734375 237.214844 167.269531 247.707031 167.269531 L 564.042969 167.269531 C 574.535156 167.269531 583.007812 175.734375 583.007812 186.222656 Z M 583.007812 186.222656 " fill-opacity="1" fill-rule="nonzero"/><path fill="#ffa8cf" d="M 228.742188 266.203125 L 583.007812 266.203125 L 583.007812 436.902344 L 228.742188 436.902344 Z M 228.742188 266.203125 " fill-opacity="1" fill-rule="nonzero"/><path fill="#ff7eb8" d="M 583.007812 266.203125 L 583.007812 399.378906 C 568.339844 405.441406 552.285156 408.855469 535.46875 408.855469 C 466.816406 408.855469 411.1875 353.257812 411.1875 284.652344 C 411.1875 278.460938 411.691406 272.269531 412.578125 266.203125 Z M 583.007812 266.203125 " fill-opacity="1" fill-rule="nonzero"/><path fill="#6583fe" d="M 583.007812 228.171875 L 583.007812 186.222656 C 583.007812 175.734375 574.535156 167.269531 564.042969 167.269531 L 247.707031 167.269531 C 237.214844 167.269531 228.742188 175.734375 228.742188 186.222656 L 228.742188 228.171875 Z M 583.007812 228.171875 " fill-opacity="1" fill-rule="nonzero"/><path fill="#2626bc" d="M 657.476562 198.859375 L 589.328125 198.859375 L 589.328125 186.222656 C 589.328125 172.324219 577.949219 160.953125 564.042969 160.953125 L 247.707031 160.953125 C 233.800781 160.953125 222.421875 172.324219 222.421875 186.222656 L 222.421875 198.859375 L 154.273438 198.859375 C 140.367188 198.859375 128.988281 210.230469 128.988281 224.128906 L 128.988281 621.503906 C 128.988281 635.402344 140.367188 646.773438 154.273438 646.773438 L 193.972656 646.773438 C 197.515625 646.773438 200.296875 643.992188 200.296875 640.457031 C 200.296875 636.917969 197.515625 634.136719 193.972656 634.136719 L 154.273438 634.136719 C 147.320312 634.136719 141.628906 628.453125 141.628906 621.503906 L 141.628906 272.394531 L 222.421875 272.394531 L 222.421875 659.410156 C 222.421875 673.308594 233.800781 684.679688 247.707031 684.679688 L 564.042969 684.679688 C 577.949219 684.679688 589.328125 673.308594 589.328125 659.410156 L 589.328125 646.773438 L 657.476562 646.773438 C 671.382812 646.773438 682.761719 635.402344 682.761719 621.503906 L 682.761719 224.128906 C 682.761719 210.230469 671.382812 198.859375 657.476562 198.859375 Z M 657.476562 211.492188 C 664.429688 211.492188 670.121094 217.179688 670.121094 224.128906 L 670.121094 259.757812 L 589.328125 259.757812 L 589.328125 211.492188 Z M 247.707031 173.585938 L 564.042969 173.585938 C 570.996094 173.585938 576.6875 179.273438 576.6875 186.222656 L 576.6875 221.855469 L 235.066406 221.855469 L 235.066406 186.222656 C 235.066406 179.273438 240.753906 173.585938 247.707031 173.585938 Z M 141.628906 259.757812 L 141.628906 224.128906 C 141.628906 217.179688 147.320312 211.492188 154.273438 211.492188 L 222.421875 211.492188 L 222.421875 259.757812 Z M 657.476562 634.136719 L 589.328125 634.136719 L 589.328125 300.949219 C 589.328125 297.410156 586.546875 294.632812 583.007812 294.632812 C 579.46875 294.632812 576.6875 297.410156 576.6875 300.949219 L 576.6875 659.535156 C 576.6875 666.484375 570.996094 672.167969 564.042969 672.167969 L 247.707031 672.167969 C 240.753906 672.167969 235.066406 666.484375 235.066406 659.535156 L 235.066406 234.488281 L 576.6875 234.488281 L 576.6875 266.078125 C 576.6875 269.613281 579.46875 272.394531 583.007812 272.394531 L 670.121094 272.394531 L 670.121094 621.503906 C 670.121094 628.453125 664.429688 634.136719 657.476562 634.136719 Z M 657.476562 634.136719 " fill-opacity="1" fill-rule="nonzero"/><path fill="#2626bc" d="M 183.480469 229.308594 C 179.941406 229.308594 177.160156 232.089844 177.160156 235.625 L 177.160156 235.753906 C 177.160156 239.289062 179.941406 242.070312 183.480469 242.070312 C 187.019531 242.070312 189.800781 239.289062 189.800781 235.753906 L 189.800781 235.625 C 189.800781 232.089844 187.019531 229.308594 183.480469 229.308594 Z M 183.480469 229.308594 " fill-opacity="1" fill-rule="nonzero"/><path fill="#2626bc" d="M 207.882812 229.308594 C 204.339844 229.308594 201.558594 232.089844 201.558594 235.625 L 201.558594 235.753906 C 201.558594 239.289062 204.339844 242.070312 207.882812 242.070312 C 211.421875 242.070312 214.203125 239.289062 214.203125 235.753906 L 214.203125 235.625 C 214.203125 232.089844 211.421875 229.308594 207.882812 229.308594 Z M 207.882812 229.308594 " fill-opacity="1" fill-rule="nonzero"/><path fill="#2626bc" d="M 276.914062 204.164062 C 280.453125 204.164062 283.234375 201.386719 283.234375 197.847656 L 283.234375 197.722656 C 283.234375 194.183594 280.453125 191.402344 276.914062 191.402344 C 273.375 191.402344 270.59375 194.183594 270.59375 197.722656 L 270.59375 197.847656 C 270.59375 201.257812 273.375 204.164062 276.914062 204.164062 Z M 276.914062 204.164062 " fill-opacity="1" fill-rule="nonzero"/><path fill="#2626bc" d="M 301.316406 204.164062 C 304.855469 204.164062 307.636719 201.386719 307.636719 197.847656 L 307.636719 197.722656 C 307.636719 194.183594 304.855469 191.402344 301.316406 191.402344 C 297.773438 191.402344 294.992188 194.183594 294.992188 197.722656 L 294.992188 197.847656 C 294.992188 201.257812 297.902344 204.164062 301.316406 204.164062 Z M 301.316406 204.164062 " fill-opacity="1" fill-rule="nonzero"/><path fill="#2626bc" d="M 325.84375 204.164062 C 329.382812 204.164062 332.164062 201.386719 332.164062 197.847656 L 332.164062 197.722656 C 332.164062 194.183594 329.382812 191.402344 325.84375 191.402344 C 322.304688 191.402344 319.523438 194.183594 319.523438 197.722656 L 319.523438 197.847656 C 319.523438 201.257812 322.304688 204.164062 325.84375 204.164062 Z M 325.84375 204.164062 " fill-opacity="1" fill-rule="nonzero"/><path fill="#2626bc" d="M 539.894531 332.410156 C 537.367188 329.882812 533.445312 329.882812 530.917969 332.410156 C 528.390625 334.9375 528.390625 338.855469 530.917969 341.382812 L 533.824219 344.289062 L 530.917969 347.195312 C 528.390625 349.722656 528.390625 353.636719 530.917969 356.164062 C 532.183594 357.429688 533.824219 358.058594 535.34375 358.058594 C 536.859375 358.058594 538.628906 357.429688 539.769531 356.164062 L 547.101562 348.835938 C 549.628906 346.308594 549.628906 342.394531 547.101562 339.867188 Z M 539.894531 332.410156 " fill-opacity="1" fill-rule="nonzero"/><path fill="#2626bc" d="M 280.832031 332.410156 C 278.304688 329.882812 274.386719 329.882812 271.855469 332.410156 L 264.523438 339.738281 C 261.996094 342.265625 261.996094 346.183594 264.523438 348.710938 L 271.855469 356.039062 C 273.121094 357.300781 274.765625 357.933594 276.28125 357.933594 C 277.925781 357.933594 279.570312 357.300781 280.707031 356.039062 C 283.234375 353.511719 283.234375 349.59375 280.707031 347.066406 L 277.800781 344.160156 L 280.707031 341.253906 C 283.234375 338.855469 283.234375 334.9375 280.832031 332.410156 Z M 280.832031 332.410156 " fill-opacity="1" fill-rule="nonzero"/><path fill="#4369fd" d="M 391.589844 413.78125 C 391.589844 414.246094 391.542969 414.707031 391.453125 415.160156 C 391.363281 415.617188 391.226562 416.058594 391.050781 416.488281 C 390.871094 416.917969 390.652344 417.324219 390.394531 417.710938 C 390.136719 418.097656 389.84375 418.457031 389.515625 418.785156 C 389.1875 419.113281 388.828125 419.40625 388.441406 419.664062 C 388.054688 419.921875 387.648438 420.140625 387.21875 420.320312 C 386.789062 420.496094 386.34375 420.628906 385.890625 420.722656 C 385.433594 420.8125 384.972656 420.855469 384.507812 420.855469 C 384.042969 420.855469 383.582031 420.8125 383.125 420.722656 C 382.671875 420.628906 382.226562 420.496094 381.796875 420.320312 C 381.371094 420.140625 380.960938 419.921875 380.574219 419.664062 C 380.1875 419.40625 379.832031 419.113281 379.5 418.785156 C 379.171875 418.457031 378.878906 418.097656 378.621094 417.710938 C 378.363281 417.324219 378.144531 416.917969 377.96875 416.488281 C 377.789062 416.058594 377.65625 415.617188 377.5625 415.160156 C 377.472656 414.707031 377.429688 414.246094 377.429688 413.78125 C 377.429688 413.316406 377.472656 412.855469 377.5625 412.402344 C 377.65625 411.945312 377.789062 411.503906 377.96875 411.074219 C 378.144531 410.644531 378.363281 410.238281 378.621094 409.851562 C 378.878906 409.464844 379.171875 409.105469 379.5 408.777344 C 379.832031 408.449219 380.1875 408.15625 380.574219 407.898438 C 380.960938 407.640625 381.371094 407.421875 381.796875 407.246094 C 382.226562 407.066406 382.671875 406.933594 383.125 406.839844 C 383.582031 406.75 384.042969 406.707031 384.507812 406.707031 C 384.972656 406.707031 385.433594 406.75 385.890625 406.839844 C 386.34375 406.933594 386.789062 407.066406 387.21875 407.246094 C 387.648438 407.421875 388.054688 407.640625 388.441406 407.898438 C 388.828125 408.15625 389.1875 408.449219 389.515625 408.777344 C 389.84375 409.105469 390.136719 409.464844 390.394531 409.851562 C 390.652344 410.238281 390.871094 410.644531 391.050781 411.074219 C 391.226562 411.503906 391.363281 411.945312 391.453125 412.402344 C 391.542969 412.855469 391.589844 413.316406 391.589844 413.78125 Z M 391.589844 413.78125 " fill-opacity="1" fill-rule="nonzero"/><path fill="#ff5ba8" d="M 412.957031 413.78125 C 412.957031 414.246094 412.910156 414.707031 412.820312 415.160156 C 412.730469 415.617188 412.59375 416.058594 412.417969 416.488281 C 412.238281 416.917969 412.019531 417.324219 411.761719 417.710938 C 411.503906 418.097656 411.210938 418.457031 410.882812 418.785156 C 410.554688 419.113281 410.195312 419.40625 409.808594 419.664062 C 409.421875 419.921875 409.015625 420.140625 408.585938 420.320312 C 408.15625 420.496094 407.710938 420.628906 407.257812 420.722656 C 406.800781 420.8125 406.339844 420.855469 405.875 420.855469 C 405.410156 420.855469 404.949219 420.8125 404.492188 420.722656 C 404.039062 420.628906 403.59375 420.496094 403.164062 420.320312 C 402.734375 420.140625 402.328125 419.921875 401.941406 419.664062 C 401.554688 419.40625 401.199219 419.113281 400.867188 418.785156 C 400.539062 418.457031 400.246094 418.097656 399.988281 417.710938 C 399.730469 417.324219 399.511719 416.917969 399.335938 416.488281 C 399.15625 416.058594 399.023438 415.617188 398.929688 415.160156 C 398.839844 414.707031 398.796875 414.246094 398.796875 413.78125 C 398.796875 413.316406 398.839844 412.855469 398.929688 412.402344 C 399.023438 411.945312 399.15625 411.503906 399.335938 411.074219 C 399.511719 410.644531 399.730469 410.238281 399.988281 409.851562 C 400.246094 409.464844 400.539062 409.105469 400.867188 408.777344 C 401.199219 408.449219 401.554688 408.15625 401.941406 407.898438 C 402.328125 407.640625 402.734375 407.421875 403.164062 407.246094 C 403.59375 407.066406 404.039062 406.933594 404.492188 406.839844 C 404.949219 406.75 405.410156 406.707031 405.875 406.707031 C 406.339844 406.707031 406.800781 406.75 407.257812 406.839844 C 407.710938 406.933594 408.15625 407.066406 408.585938 407.246094 C 409.015625 407.421875 409.421875 407.640625 409.808594 407.898438 C 410.195312 408.15625 410.554688 408.449219 410.882812 408.777344 C 411.210938 409.105469 411.503906 409.464844 411.761719 409.851562 C 412.019531 410.238281 412.238281 410.644531 412.417969 411.074219 C 412.59375 411.503906 412.730469 411.945312 412.820312 412.402344 C 412.910156 412.855469 412.957031 413.316406 412.957031 413.78125 Z M 412.957031 413.78125 " fill-opacity="1" fill-rule="nonzero"/><path fill="#ff5ba8" d="M 434.324219 413.78125 C 434.324219 414.246094 434.277344 414.707031 434.1875 415.160156 C 434.097656 415.617188 433.960938 416.058594 433.785156 416.488281 C 433.605469 416.917969 433.386719 417.324219 433.128906 417.710938 C 432.871094 418.097656 432.578125 418.457031 432.25 418.785156 C 431.921875 419.113281 431.5625 419.40625 431.175781 419.664062 C 430.789062 419.921875 430.382812 420.140625 429.953125 420.320312 C 429.523438 420.496094 429.078125 420.628906 428.625 420.722656 C 428.167969 420.8125 427.707031 420.855469 427.242188 420.855469 C 426.777344 420.855469 426.316406 420.8125 425.859375 420.722656 C 425.40625 420.628906 424.960938 420.496094 424.53125 420.320312 C 424.101562 420.140625 423.695312 419.921875 423.308594 419.664062 C 422.921875 419.40625 422.566406 419.113281 422.234375 418.785156 C 421.90625 418.457031 421.613281 418.097656 421.355469 417.710938 C 421.097656 417.324219 420.878906 416.917969 420.703125 416.488281 C 420.523438 416.058594 420.390625 415.617188 420.296875 415.160156 C 420.207031 414.707031 420.164062 414.246094 420.164062 413.78125 C 420.164062 413.316406 420.207031 412.855469 420.296875 412.402344 C 420.390625 411.945312 420.523438 411.503906 420.703125 411.074219 C 420.878906 410.644531 421.097656 410.238281 421.355469 409.851562 C 421.613281 409.464844 421.90625 409.105469 422.234375 408.777344 C 422.566406 408.449219 422.921875 408.15625 423.308594 407.898438 C 423.695312 407.640625 424.101562 407.421875 424.53125 407.246094 C 424.960938 407.066406 425.40625 406.933594 425.859375 406.839844 C 426.316406 406.75 426.777344 406.707031 427.242188 406.707031 C 427.707031 406.707031 428.167969 406.75 428.625 406.839844 C 429.078125 406.933594 429.523438 407.066406 429.953125 407.246094 C 430.382812 407.421875 430.789062 407.640625 431.175781 407.898438 C 431.5625 408.15625 431.921875 408.449219 432.25 408.777344 C 432.578125 409.105469 432.871094 409.464844 433.128906 409.851562 C 433.386719 410.238281 433.605469 410.644531 433.785156 411.074219 C 433.960938 411.503906 434.097656 411.945312 434.1875 412.402344 C 434.277344 412.855469 434.324219 413.316406 434.324219 413.78125 Z M 434.324219 413.78125 " fill-opacity="1" fill-rule="nonzero"/><path fill="#6583fe" d="M 334.3125 535.457031 L 255.039062 535.457031 C 252.890625 535.457031 251.246094 533.816406 251.246094 531.667969 L 251.246094 475.1875 C 251.246094 473.039062 252.890625 471.398438 255.039062 471.398438 L 334.3125 471.398438 C 336.464844 471.398438 338.105469 473.039062 338.105469 475.1875 L 338.105469 531.667969 C 338.105469 533.816406 336.464844 535.457031 334.3125 535.457031 Z M 334.3125 535.457031 " fill-opacity="1" fill-rule="nonzero"/><path fill="#9fb0fe" d="M 321.164062 535.457031 L 290.820312 535.457031 L 290.820312 498.308594 C 290.820312 496.164062 292.464844 494.519531 294.613281 494.519531 L 317.371094 494.519531 C 319.523438 494.519531 321.164062 496.164062 321.164062 498.308594 Z M 321.164062 535.457031 " fill-opacity="1" fill-rule="nonzero"/><path fill="#ff7eb8" d="M 316.613281 567.804688 L 272.613281 567.804688 C 269.074219 567.804688 266.292969 565.023438 266.292969 561.484375 C 266.292969 557.949219 269.074219 555.167969 272.613281 555.167969 L 316.613281 555.167969 C 320.152344 555.167969 322.933594 557.949219 322.933594 561.484375 C 322.933594 565.023438 320.152344 567.804688 316.613281 567.804688 Z M 316.613281 567.804688 " fill-opacity="1" fill-rule="nonzero"/><path fill="#b7c5ff" d="M 334.945312 613.164062 L 257.570312 613.164062 C 254.03125 613.164062 251.246094 610.382812 251.246094 606.847656 C 251.246094 603.308594 254.03125 600.527344 257.570312 600.527344 L 334.945312 600.527344 C 338.488281 600.527344 341.269531 603.308594 341.269531 606.847656 C 341.269531 610.382812 338.488281 613.164062 334.945312 613.164062 Z M 334.945312 613.164062 " fill-opacity="1" fill-rule="nonzero"/><path fill="#b7c5ff" d="M 334.945312 637.929688 L 257.570312 637.929688 C 254.03125 637.929688 251.246094 635.148438 251.246094 631.609375 C 251.246094 628.074219 254.03125 625.292969 257.570312 625.292969 L 334.945312 625.292969 C 338.488281 625.292969 341.269531 628.074219 341.269531 631.609375 C 341.269531 635.148438 338.488281 637.929688 334.945312 637.929688 Z M 334.945312 637.929688 " fill-opacity="1" fill-rule="nonzero"/><path fill="#6583fe" d="M 443.933594 535.457031 L 364.660156 535.457031 C 362.507812 535.457031 360.867188 533.816406 360.867188 531.667969 L 360.867188 475.1875 C 360.867188 473.039062 362.507812 471.398438 364.660156 471.398438 L 443.933594 471.398438 C 446.082031 471.398438 447.726562 473.039062 447.726562 475.1875 L 447.726562 531.667969 C 447.726562 533.816406 446.082031 535.457031 443.933594 535.457031 Z M 443.933594 535.457031 " fill-opacity="1" fill-rule="nonzero"/><path fill="#9fb0fe" d="M 430.78125 535.457031 L 400.4375 535.457031 L 400.4375 498.308594 C 400.4375 496.164062 402.082031 494.519531 404.230469 494.519531 L 426.988281 494.519531 C 429.140625 494.519531 430.78125 496.164062 430.78125 498.308594 Z M 430.78125 535.457031 " fill-opacity="1" fill-rule="nonzero"/><path fill="#ff7eb8" d="M 426.230469 567.804688 L 382.230469 567.804688 C 378.691406 567.804688 375.910156 565.023438 375.910156 561.484375 C 375.910156 557.949219 378.691406 555.167969 382.230469 555.167969 L 426.230469 555.167969 C 429.769531 555.167969 432.550781 557.949219 432.550781 561.484375 C 432.550781 565.023438 429.769531 567.804688 426.230469 567.804688 Z M 426.230469 567.804688 " fill-opacity="1" fill-rule="nonzero"/><path fill="#b7c5ff" d="M 444.5625 613.164062 L 367.1875 613.164062 C 363.648438 613.164062 360.867188 610.382812 360.867188 606.847656 C 360.867188 603.308594 363.648438 600.527344 367.1875 600.527344 L 444.5625 600.527344 C 448.105469 600.527344 450.886719 603.308594 450.886719 606.847656 C 450.886719 610.382812 448.105469 613.164062 444.5625 613.164062 Z M 444.5625 613.164062 " fill-opacity="1" fill-rule="nonzero"/><path fill="#b7c5ff" d="M 444.5625 637.929688 L 367.1875 637.929688 C 363.648438 637.929688 360.867188 635.148438 360.867188 631.609375 C 360.867188 628.074219 363.648438 625.292969 367.1875 625.292969 L 444.5625 625.292969 C 448.105469 625.292969 450.886719 628.074219 450.886719 631.609375 C 450.886719 635.148438 448.105469 637.929688 444.5625 637.929688 Z M 444.5625 637.929688 " fill-opacity="1" fill-rule="nonzero"/><path fill="#6583fe" d="M 553.550781 535.457031 L 474.277344 535.457031 C 472.125 535.457031 470.484375 533.816406 470.484375 531.667969 L 470.484375 475.1875 C 470.484375 473.039062 472.125 471.398438 474.277344 471.398438 L 553.550781 471.398438 C 555.699219 471.398438 557.34375 473.039062 557.34375 475.1875 L 557.34375 531.667969 C 557.34375 533.816406 555.699219 535.457031 553.550781 535.457031 Z M 553.550781 535.457031 " fill-opacity="1" fill-rule="nonzero"/><path fill="#9fb0fe" d="M 540.398438 535.457031 L 510.054688 535.457031 L 510.054688 498.308594 C 510.054688 496.164062 511.699219 494.519531 513.847656 494.519531 L 536.605469 494.519531 C 538.757812 494.519531 540.398438 496.164062 540.398438 498.308594 Z M 540.398438 535.457031 " fill-opacity="1" fill-rule="nonzero"/><path fill="#ff7eb8" d="M 535.847656 567.804688 L 491.851562 567.804688 C 488.308594 567.804688 485.527344 565.023438 485.527344 561.484375 C 485.527344 557.949219 488.308594 555.167969 491.851562 555.167969 L 535.847656 555.167969 C 539.386719 555.167969 542.171875 557.949219 542.171875 561.484375 C 542.171875 565.023438 539.386719 567.804688 535.847656 567.804688 Z M 535.847656 567.804688 " fill-opacity="1" fill-rule="nonzero"/><path fill="#b7c5ff" d="M 554.179688 613.164062 L 476.804688 613.164062 C 473.265625 613.164062 470.484375 610.382812 470.484375 606.847656 C 470.484375 603.308594 473.265625 600.527344 476.804688 600.527344 L 554.179688 600.527344 C 557.722656 600.527344 560.503906 603.308594 560.503906 606.847656 C 560.503906 610.382812 557.722656 613.164062 554.179688 613.164062 Z M 554.179688 613.164062 " fill-opacity="1" fill-rule="nonzero"/><path fill="#b7c5ff" d="M 554.179688 637.929688 L 476.804688 637.929688 C 473.265625 637.929688 470.484375 635.148438 470.484375 631.609375 C 470.484375 628.074219 473.265625 625.292969 476.804688 625.292969 L 554.179688 625.292969 C 557.722656 625.292969 560.503906 628.074219 560.503906 631.609375 C 560.503906 635.148438 557.722656 637.929688 554.179688 637.929688 Z M 554.179688 637.929688 " fill-opacity="1" fill-rule="nonzero"/><path fill="#ff7eb8" d="M 616.890625 181.167969 C 615.25 181.167969 613.605469 180.535156 612.464844 179.273438 L 598.558594 165.375 C 597.421875 164.238281 596.664062 162.59375 596.664062 160.953125 C 596.664062 159.308594 597.292969 157.667969 598.558594 156.53125 L 612.464844 142.632812 C 614.996094 140.105469 618.914062 140.105469 621.445312 142.632812 L 635.351562 156.53125 C 636.488281 157.667969 637.246094 159.308594 637.246094 160.953125 C 637.246094 162.59375 636.617188 164.238281 635.351562 165.375 L 621.445312 179.273438 C 620.179688 180.535156 618.535156 181.167969 616.890625 181.167969 Z M 611.835938 160.953125 L 616.765625 165.878906 L 621.695312 160.953125 L 616.765625 156.023438 Z M 611.835938 160.953125 " fill-opacity="1" fill-rule="nonzero"/><path fill="#6583fe" d="M 190.558594 704.011719 C 188.917969 704.011719 187.273438 703.378906 186.136719 702.113281 L 172.226562 688.214844 C 171.089844 687.078125 170.332031 685.4375 170.332031 683.792969 C 170.332031 682.152344 170.964844 680.507812 172.226562 679.371094 L 186.136719 665.472656 C 188.664062 662.945312 192.582031 662.945312 195.113281 665.472656 L 209.019531 679.371094 C 210.15625 680.507812 210.914062 682.152344 210.914062 683.792969 C 210.914062 685.4375 210.285156 687.078125 209.019531 688.214844 L 195.113281 702.113281 C 193.847656 703.378906 192.203125 704.011719 190.558594 704.011719 Z M 185.503906 683.792969 L 190.433594 688.722656 L 195.363281 683.792969 L 190.433594 678.867188 Z M 185.503906 683.792969 " fill-opacity="1" fill-rule="nonzero"/><path fill="#6583fe" d="M 557.34375 145.539062 C 555.699219 145.539062 554.054688 144.90625 552.917969 143.640625 L 539.007812 129.742188 C 537.871094 128.605469 537.113281 126.964844 537.113281 125.320312 C 537.113281 123.679688 537.746094 122.035156 539.007812 120.898438 L 552.917969 107 C 555.445312 104.472656 559.363281 104.472656 561.894531 107 L 575.800781 120.898438 C 578.328125 123.425781 578.328125 127.34375 575.800781 129.871094 L 561.894531 143.769531 C 560.628906 145.03125 558.984375 145.539062 557.34375 145.539062 Z M 552.410156 125.320312 L 557.34375 130.25 L 562.273438 125.320312 L 557.34375 120.394531 Z M 552.410156 125.320312 " fill-opacity="1" fill-rule="nonzero"/><path fill="#97ffd2" d="M 641.039062 705.273438 C 637.5 705.273438 634.71875 702.492188 634.71875 698.957031 C 634.71875 694.785156 631.304688 691.375 627.132812 691.375 C 623.59375 691.375 620.8125 688.59375 620.8125 685.058594 C 620.8125 681.519531 623.59375 678.738281 627.132812 678.738281 C 631.304688 678.738281 634.71875 675.328125 634.71875 671.160156 C 634.71875 667.621094 637.5 664.839844 641.039062 664.839844 C 644.582031 664.839844 647.363281 667.621094 647.363281 671.160156 C 647.363281 675.328125 650.777344 678.738281 654.949219 678.738281 C 658.488281 678.738281 661.269531 681.519531 661.269531 685.058594 C 661.269531 688.59375 658.488281 691.375 654.949219 691.375 C 650.777344 691.375 647.363281 694.785156 647.363281 698.957031 C 647.363281 702.492188 644.582031 705.273438 641.039062 705.273438 Z M 641.039062 705.273438 " fill-opacity="1" fill-rule="nonzero"/></svg>