<svg xmlns="http://www.w3.org/2000/svg" xmlns:xlink="http://www.w3.org/1999/xlink" width="1080" zoomAndPan="magnify" viewBox="0 0 810 809.999993" height="1080" preserveAspectRatio="xMidYMid meet" version="1.0"><defs><clipPath id="720da3a573"><path d="M 453.265625 166.613281 L 740.167969 166.613281 L 740.167969 643.4375 L 453.265625 643.4375 Z M 453.265625 166.613281 " clip-rule="nonzero"/></clipPath><clipPath id="1c544d7968"><path d="M 69.832031 166.613281 L 356.734375 166.613281 L 356.734375 643.4375 L 69.832031 643.4375 Z M 69.832031 166.613281 " clip-rule="nonzero"/></clipPath></defs><g clip-path="url(#720da3a573)"><path fill="#ffffff" d="M 595.726562 450.683594 C 612.542969 450.683594 628.609375 447.597656 643.59375 442.210938 C 642.277344 457.40625 639.519531 472.71875 635.203125 487.882812 C 626.441406 519.078125 610.550781 549.070312 589.195312 575.867188 C 567.78125 602.625 540.445312 625.953125 508.625 643.441406 C 544.011719 635.589844 578.773438 620.414062 610.082031 598.503906 C 641.304688 576.574219 669.472656 548.152344 690.902344 514.15625 C 712.433594 480.273438 727.867188 441.234375 735.203125 399.675781 C 740.953125 366.640625 741.824219 332.226562 737.214844 297.824219 C 736.535156 288.816406 734.988281 280.070312 732.695312 271.609375 C 732.664062 271.472656 732.640625 271.332031 732.617188 271.195312 L 732.589844 271.207031 C 716.097656 211.027344 661.074219 166.613281 595.726562 166.613281 C 517.40625 166.613281 453.6875 230.332031 453.6875 308.648438 C 453.6875 386.964844 517.40625 450.683594 595.726562 450.683594 " fill-opacity="1" fill-rule="nonzero"/></g><g clip-path="url(#1c544d7968)"><path fill="#ffffff" d="M 211.871094 450.683594 C 228.679688 450.683594 244.753906 447.597656 259.734375 442.210938 C 258.417969 457.40625 255.65625 472.71875 251.339844 487.882812 C 242.585938 519.078125 226.695312 549.070312 205.339844 575.867188 C 183.925781 602.625 156.589844 625.953125 124.769531 643.441406 C 160.15625 635.589844 194.917969 620.414062 226.222656 598.503906 C 257.441406 576.574219 285.617188 548.152344 307.046875 514.15625 C 328.578125 480.273438 344.007812 441.234375 351.347656 399.675781 C 357.097656 366.632812 357.960938 332.214844 353.351562 297.808594 C 352.671875 288.816406 351.125 280.082031 348.84375 271.636719 C 348.8125 271.488281 348.792969 271.339844 348.757812 271.195312 L 348.726562 271.207031 C 332.238281 211.027344 277.210938 166.613281 211.871094 166.613281 C 133.546875 166.613281 69.832031 230.332031 69.832031 308.648438 C 69.832031 386.964844 133.546875 450.683594 211.871094 450.683594 " fill-opacity="1" fill-rule="nonzero"/></g></svg>